# xmcd
#
# Track frame offsets: 
#        150
#        18414
#        37866
#        55090
#        77229
#        95730
#        112563
#        127838
#        148135
#        164042
#        186082
#        202757
#        226401
#        244539
#
# Disc length: 3575 seconds
#
# Revision: 0
# Processed by: cddbd v1.5.2PL0 Copyright (c) Steve Scherf et al.
# Submitted via: ExactAudioCopy v1.0b4
#
DISCID=ac0df50e
DTITLE=Harpdog Brown - What It Is
DYEAR=2014
DGENRE=Blues
TTITLE0=Doncha Know I Loves Ya
TTITLE1=How Come
TTITLE2=If Ya Wanna Grow Old
TTITLE3=Whiskey Bottle
TTITLE4=No Money In The Till
TTITLE5=Git Ta Gittin' Baby
TTITLE6=Facebook Woman
TTITLE7=Blue Lights
TTITLE8=Cheatin' n Lyin'
TTITLE9=Big Rockin' Daddy
TTITLE10=All Night Boogie
TTITLE11=In My Younger Days
TTITLE12=What It Is
TTITLE13=Headin' Out
EXTD=
EXTT0=
EXTT1=
EXTT2=
EXTT3=
EXTT4=
EXTT5=
EXTT6=
EXTT7=
EXTT8=
EXTT9=
EXTT10=
EXTT11=
EXTT12=
EXTT13=
PLAYORDER=
